<?xml version="1.0" encoding="iso-8859-1"?>
<!-- Uploaded to: SVG Repo, www.svgrepo.com, Generator: SVG Repo Mixer Tools -->
<svg version="1.1" id="Layer_1" xmlns="http://www.w3.org/2000/svg" xmlns:xlink="http://www.w3.org/1999/xlink" 
	 viewBox="0 0 512.003 512.003" xml:space="preserve">
<path d="M287.644,151.811L185.246,49.413c-1.621-1.536-3.755-2.475-6.059-2.475H8.524c-3.413,0-6.571,2.048-7.851,5.291
	c-1.365,3.157-0.597,6.827,1.792,9.301l2.475,2.475l93.95,93.865L4.94,251.735l-2.475,2.475c-2.389,2.475-3.157,6.144-1.792,9.301
	c1.28,3.243,4.437,5.291,7.851,5.291h170.664c2.304,0,4.437-0.939,6.059-2.475l102.398-102.398
	C290.972,160.601,290.972,155.139,287.644,151.811z M175.689,251.735h-146.6l87.892-87.807c3.328-3.328,3.328-8.789,0-12.117
	L29.089,64.005h146.6l93.865,93.865L175.689,251.735z"/>
<path style="fill:#215EFF;" d="M269.554,157.87l-93.865,93.865h-27.05l87.807-87.807c3.328-3.328,3.328-8.789,0-12.117
	l-87.807-87.807h27.05L269.554,157.87z"/>
<path style="fill:#0F7BE4;" d="M236.445,163.929l-87.807,87.807H29.089l87.892-87.807c3.328-3.328,3.328-8.789,0-12.117
	L29.089,64.005h119.55l87.807,87.807C239.773,155.139,239.773,160.601,236.445,163.929z"/>
<path d="M503.449,217.602h-47.701l53.759-53.674c3.328-3.328,3.328-8.789,0-12.117L407.109,49.413
	c-1.621-1.536-3.755-2.475-6.059-2.475H230.387c-3.413,0-6.571,2.048-7.851,5.291c-1.365,3.157-0.597,6.827,1.792,9.301l2.475,2.475
	l93.95,93.865l-93.95,93.865l-2.475,2.475c-2.389,2.475-3.157,6.144-1.792,9.301c1.28,3.243,4.437,5.291,7.851,5.291h68.266v187.73
	c0,4.693,3.84,8.533,8.533,8.533h196.263c4.693,0,8.533-3.84,8.533-8.533V226.135C511.982,221.442,508.142,217.602,503.449,217.602z
	 M250.952,251.735l87.892-87.807c3.328-3.328,3.328-8.789,0-12.117l-87.892-87.807h146.6l93.865,93.865l-59.732,59.732H307.185
	c-4.693,0-8.533,3.84-8.533,8.533v25.6H250.952z M494.916,447.998H315.719V285.868h179.197V447.998z M494.916,268.801H315.719
	v-34.133h179.197V268.801z"/>
<path style="fill:#AFAFAF;" d="M383.984,328.534h85.332v-42.666H315.719v162.131h153.597v-42.666h-85.332
	c-4.693,0-8.533-3.84-8.533-8.533c0-4.693,3.84-8.533,8.533-8.533h85.332V345.6h-85.332c-4.693,0-8.533-3.84-8.533-8.533
	S379.291,328.534,383.984,328.534z M349.851,405.332h-8.533c-4.693,0-8.533-3.84-8.533-8.533c0-4.693,3.84-8.533,8.533-8.533h8.533
	c4.693,0,8.533,3.84,8.533,8.533C358.385,401.493,354.545,405.332,349.851,405.332z M349.851,345.6h-8.533
	c-4.693,0-8.533-3.84-8.533-8.533s3.84-8.533,8.533-8.533h8.533c4.693,0,8.533,3.84,8.533,8.533S354.545,345.6,349.851,345.6z"/>
<path style="fill:#7E939E;" d="M494.916,285.868v162.131h-25.6v-42.666c4.693,0,8.533-3.84,8.533-8.533
	c0-4.693-3.84-8.533-8.533-8.533V345.6c4.693,0,8.533-3.84,8.533-8.533s-3.84-8.533-8.533-8.533v-42.666H494.916z"/>
<rect x="469.316" y="234.669" style="fill:#E5E5E5;" width="25.6" height="34.133"/>
<rect x="315.719" y="234.669" style="fill:#F9F9F9;" width="153.597" height="34.133"/>
<path style="fill:#9B0045;" d="M491.417,157.87l-59.732,59.732h-27.05l53.674-53.674c3.328-3.328,3.328-8.789,0-12.117
	l-87.807-87.807h27.05L491.417,157.87z"/>
<path style="fill:#CC004E;" d="M458.308,163.929l-53.674,53.674h-97.449c-4.693,0-8.533,3.84-8.533,8.533v25.6h-47.701
	l87.892-87.807c3.328-3.328,3.328-8.789,0-12.117l-87.892-87.807h119.55l87.807,87.807
	C461.636,155.139,461.636,160.601,458.308,163.929z"/>
<path d="M477.849,337.067c0,4.693-3.84,8.533-8.533,8.533h-85.332c-4.693,0-8.533-3.84-8.533-8.533s3.84-8.533,8.533-8.533h85.332
	C474.009,328.534,477.849,332.374,477.849,337.067z"/>
<path d="M477.849,396.799c0,4.693-3.84,8.533-8.533,8.533h-85.332c-4.693,0-8.533-3.84-8.533-8.533c0-4.693,3.84-8.533,8.533-8.533
	h85.332C474.009,388.266,477.849,392.106,477.849,396.799z"/>
<path d="M358.385,337.067c0,4.693-3.84,8.533-8.533,8.533h-8.533c-4.693,0-8.533-3.84-8.533-8.533s3.84-8.533,8.533-8.533h8.533
	C354.545,328.534,358.385,332.374,358.385,337.067z"/>
<path d="M358.385,396.799c0,4.693-3.84,8.533-8.533,8.533h-8.533c-4.693,0-8.533-3.84-8.533-8.533c0-4.693,3.84-8.533,8.533-8.533
	h8.533C354.545,388.266,358.385,392.106,358.385,396.799z"/>
</svg>