<?xml version="1.0" encoding="iso-8859-1"?>
<!-- Uploaded to: SVG Repo, www.svgrepo.com, Generator: SVG Repo Mixer Tools -->
<svg fill="#000000" height="800px" width="800px" version="1.1" id="Layer_1" xmlns="http://www.w3.org/2000/svg" xmlns:xlink="http://www.w3.org/1999/xlink" 
	 viewBox="0 0 512.008 512.008" xml:space="preserve">
<g>
	<g>
		<path d="M222.31,134.771l-85.333-85.333c-1.596-1.604-3.763-2.5-6.033-2.5H8.55c-7.603,0-11.409,9.19-6.033,14.566l73.267,73.267
			c3.328,3.328,3.328,8.738,0,12.066L2.517,220.104c-5.376,5.376-1.57,14.566,6.033,14.566h122.394c2.261,0,4.437-0.896,6.033-2.5
			l85.333-85.333C225.647,143.501,225.647,138.099,222.31,134.771z"/>
	</g>
</g>
<g>
	<g>
		<path d="M512,226.137c0-4.71-3.823-8.533-8.533-8.533H290.133c-4.71,0-8.533,3.823-8.533,8.533v34.125
			c0,4.71,3.763,8.533,8.482,8.533c36.156-0.008,177.289-0.008,213.444,0c4.71,0,8.482-3.823,8.482-8.533L512,226.137z"/>
	</g>
</g>
<g>
	<g>
		<path d="M503.466,285.871H290.133c-4.71,0-8.533,3.823-8.533,8.533v162.133c0,4.71,3.823,8.533,8.533,8.533h213.333
			c4.71,0,8.533-3.823,8.533-8.533V294.404C512,289.694,508.177,285.871,503.466,285.871z M349.866,405.337h-25.6
			c-4.719,0-8.533-3.814-8.533-8.533s3.814-8.533,8.533-8.533h25.6c4.719,0,8.533,3.814,8.533,8.533
			S354.585,405.337,349.866,405.337z M349.866,345.604h-25.6c-4.719,0-8.533-3.814-8.533-8.533s3.814-8.533,8.533-8.533h25.6
			c4.719,0,8.533,3.814,8.533,8.533S354.585,345.604,349.866,345.604z M469.333,405.337H384c-4.719,0-8.533-3.814-8.533-8.533
			s3.814-8.533,8.533-8.533h85.333c4.719,0,8.533,3.814,8.533,8.533S474.052,405.337,469.333,405.337z M469.333,345.604H384
			c-4.719,0-8.533-3.814-8.533-8.533s3.814-8.533,8.533-8.533h85.333c4.719,0,8.533,3.814,8.533,8.533
			S474.052,345.604,469.333,345.604z"/>
	</g>
</g>
<g>
	<g>
		<path d="M439.168,134.771l-85.333-85.333c-1.604-1.604-3.772-2.5-6.033-2.5H225.399c-7.603,0-11.409,9.19-6.033,14.566
			l73.267,73.267c3.337,3.337,3.337,8.738,0,12.066l-73.267,73.267c-5.376,5.376-1.57,14.566,6.033,14.566H256
			c4.71,0,8.533-3.823,8.533-8.533v-17.067c0-4.71,3.823-8.533,8.533-8.533h108.868c2.261,0,4.437-0.896,6.033-2.5l51.2-51.2
			C442.496,143.509,442.496,138.099,439.168,134.771z"/>
	</g>
</g>
</svg>